<?xml version="1.0" encoding="utf-8"?>
<!-- Generator: Adobe Illustrator 16.0.3, SVG Export Plug-In . SVG Version: 6.00 Build 0)  -->
<!DOCTYPE svg PUBLIC "-//W3C//DTD SVG 1.1//EN" "http://www.w3.org/Graphics/SVG/1.1/DTD/svg11.dtd">
<svg version="1.1" id="Ebene_1" xmlns="http://www.w3.org/2000/svg" xmlns:xlink="http://www.w3.org/1999/xlink" x="0px" y="0px"
	 width="236.975px" height="800px" viewBox="0 0 236.975 800" enable-background="new 0 0 236.975 800" xml:space="preserve">
<g>
	<defs>
		<rect id="SVGID_1_" width="953.149" height="800"/>
	</defs>
	<clipPath id="SVGID_2_">
		<use xlink:href="#SVGID_1_"  overflow="visible"/>
	</clipPath>
	<line clip-path="url(#SVGID_2_)" fill="none" stroke="#76FE96" x1="1.07" y1="0.629" x2="317.419" y2="538.425"/>
	<line clip-path="url(#SVGID_2_)" fill="none" stroke="#76FE96" x1="18.644" y1="0.629" x2="334.993" y2="538.425"/>
	<line clip-path="url(#SVGID_2_)" fill="none" stroke="#76FE96" x1="36.217" y1="0.629" x2="352.568" y2="538.425"/>
	<line clip-path="url(#SVGID_2_)" fill="none" stroke="#76FE96" x1="53.795" y1="0.629" x2="370.144" y2="538.425"/>
	<line clip-path="url(#SVGID_2_)" fill="none" stroke="#76FE96" x1="71.368" y1="0.629" x2="387.718" y2="538.425"/>
	<line clip-path="url(#SVGID_2_)" fill="none" stroke="#76FE96" x1="88.942" y1="0.629" x2="405.293" y2="538.425"/>
	<line clip-path="url(#SVGID_2_)" fill="none" stroke="#76FE96" x1="106.521" y1="0.629" x2="422.869" y2="538.425"/>
	<line clip-path="url(#SVGID_2_)" fill="none" stroke="#76FE96" x1="124.093" y1="0.629" x2="440.444" y2="538.425"/>
	<line clip-path="url(#SVGID_2_)" fill="none" stroke="#76FE96" x1="141.669" y1="0.629" x2="458.018" y2="538.425"/>
	<line clip-path="url(#SVGID_2_)" fill="none" stroke="#76FE96" x1="159.245" y1="0.629" x2="475.594" y2="538.425"/>
	<line clip-path="url(#SVGID_2_)" fill="none" stroke="#76FE96" x1="176.817" y1="0.629" x2="493.169" y2="538.425"/>
	<line clip-path="url(#SVGID_2_)" fill="none" stroke="#76FE96" x1="194.394" y1="0.629" x2="510.742" y2="538.425"/>
	<line clip-path="url(#SVGID_2_)" fill="none" stroke="#76FE96" x1="211.97" y1="0.629" x2="528.318" y2="538.425"/>
	<line clip-path="url(#SVGID_2_)" fill="none" stroke="#76FE96" x1="229.544" y1="0.629" x2="545.894" y2="538.425"/>
	<line clip-path="url(#SVGID_2_)" fill="none" stroke="#76FE96" x1="247.118" y1="0.629" x2="563.466" y2="538.425"/>
	<line clip-path="url(#SVGID_2_)" fill="none" stroke="#76FE96" x1="264.694" y1="0.629" x2="581.045" y2="538.425"/>
	<line clip-path="url(#SVGID_2_)" fill="none" stroke="#76FE96" x1="282.269" y1="0.629" x2="598.617" y2="538.425"/>
	<line clip-path="url(#SVGID_2_)" fill="none" stroke="#76FE96" x1="299.843" y1="0.629" x2="616.19" y2="538.425"/>
	<line clip-path="url(#SVGID_2_)" fill="none" stroke="#76FE96" x1="317.419" y1="0.629" x2="633.77" y2="538.425"/>
	<line clip-path="url(#SVGID_2_)" fill="none" stroke="#76FE96" x1="334.993" y1="0.629" x2="651.342" y2="538.425"/>
	<line clip-path="url(#SVGID_2_)" fill="none" stroke="#76FE96" x1="352.568" y1="0.629" x2="668.921" y2="538.425"/>
	<line clip-path="url(#SVGID_2_)" fill="none" stroke="#76FE96" x1="370.144" y1="0.629" x2="686.494" y2="538.425"/>
	<line clip-path="url(#SVGID_2_)" fill="none" stroke="#76FE96" x1="387.72" y1="0.629" x2="704.066" y2="538.425"/>
	<line clip-path="url(#SVGID_2_)" fill="none" stroke="#76FE96" x1="405.293" y1="0.629" x2="721.646" y2="538.425"/>
	<line clip-path="url(#SVGID_2_)" fill="none" stroke="#76FE96" x1="422.869" y1="0.629" x2="739.219" y2="538.425"/>
	<line clip-path="url(#SVGID_2_)" fill="none" stroke="#76FE96" x1="440.444" y1="0.629" x2="756.793" y2="538.425"/>
	<line clip-path="url(#SVGID_2_)" fill="none" stroke="#76FE96" x1="458.018" y1="0.629" x2="774.371" y2="538.425"/>
	<line clip-path="url(#SVGID_2_)" fill="none" stroke="#76FE96" x1="475.594" y1="0.629" x2="791.944" y2="538.425"/>
	<line clip-path="url(#SVGID_2_)" fill="none" stroke="#76FE96" x1="493.169" y1="0.629" x2="809.518" y2="538.425"/>
	<line clip-path="url(#SVGID_2_)" fill="none" stroke="#76FE96" x1="510.742" y1="0.629" x2="827.095" y2="538.425"/>
	<line clip-path="url(#SVGID_2_)" fill="none" stroke="#76FE96" x1="528.318" y1="0.629" x2="844.668" y2="538.425"/>
	<line clip-path="url(#SVGID_2_)" fill="none" stroke="#76FE96" x1="545.894" y1="0.629" x2="862.241" y2="538.425"/>
	<line clip-path="url(#SVGID_2_)" fill="none" stroke="#76FE96" x1="563.466" y1="0.629" x2="879.82" y2="538.425"/>
	<line clip-path="url(#SVGID_2_)" fill="none" stroke="#76FE96" x1="581.045" y1="0.629" x2="897.394" y2="538.425"/>
	<line clip-path="url(#SVGID_2_)" fill="none" stroke="#76FE96" x1="598.617" y1="0.629" x2="914.967" y2="538.425"/>
	<line clip-path="url(#SVGID_2_)" fill="none" stroke="#76FE96" x1="616.196" y1="0.629" x2="932.544" y2="538.425"/>
	<line clip-path="url(#SVGID_2_)" fill="none" stroke="#76FE96" x1="633.77" y1="0.629" x2="950.118" y2="538.425"/>
	<line clip-path="url(#SVGID_2_)" fill="none" stroke="#76FE96" x1="952.079" y1="261.578" x2="635.731" y2="799.369"/>
	<line clip-path="url(#SVGID_2_)" fill="none" stroke="#76FE96" x1="934.505" y1="261.578" x2="618.157" y2="799.369"/>
	<line clip-path="url(#SVGID_2_)" fill="none" stroke="#76FE96" x1="916.928" y1="261.578" x2="600.579" y2="799.369"/>
	<line clip-path="url(#SVGID_2_)" fill="none" stroke="#76FE96" x1="899.354" y1="261.578" x2="583.006" y2="799.369"/>
	<line clip-path="url(#SVGID_2_)" fill="none" stroke="#76FE96" x1="881.781" y1="261.578" x2="565.433" y2="799.369"/>
	<line clip-path="url(#SVGID_2_)" fill="none" stroke="#76FE96" x1="864.202" y1="261.578" x2="547.856" y2="799.369"/>
	<line clip-path="url(#SVGID_2_)" fill="none" stroke="#76FE96" x1="846.629" y1="261.578" x2="530.28" y2="799.369"/>
	<line clip-path="url(#SVGID_2_)" fill="none" stroke="#76FE96" x1="829.056" y1="261.578" x2="512.704" y2="799.369"/>
	<line clip-path="url(#SVGID_2_)" fill="none" stroke="#76FE96" x1="811.479" y1="261.578" x2="495.132" y2="799.369"/>
	<line clip-path="url(#SVGID_2_)" fill="none" stroke="#76FE96" x1="793.905" y1="261.578" x2="477.556" y2="799.369"/>
	<line clip-path="url(#SVGID_2_)" fill="none" stroke="#76FE96" x1="776.332" y1="261.578" x2="459.979" y2="799.369"/>
	<line clip-path="url(#SVGID_2_)" fill="none" stroke="#76FE96" x1="758.754" y1="261.578" x2="442.405" y2="799.369"/>
	<line clip-path="url(#SVGID_2_)" fill="none" stroke="#76FE96" x1="741.181" y1="261.578" x2="424.831" y2="799.369"/>
	<line clip-path="url(#SVGID_2_)" fill="none" stroke="#76FE96" x1="723.607" y1="261.578" x2="407.255" y2="799.369"/>
	<line clip-path="url(#SVGID_2_)" fill="none" stroke="#76FE96" x1="706.029" y1="261.578" x2="389.681" y2="799.369"/>
	<line clip-path="url(#SVGID_2_)" fill="none" stroke="#76FE96" x1="688.456" y1="261.578" x2="372.106" y2="799.369"/>
	<line clip-path="url(#SVGID_2_)" fill="none" stroke="#76FE96" x1="670.882" y1="261.578" x2="354.53" y2="799.369"/>
	<line clip-path="url(#SVGID_2_)" fill="none" stroke="#76FE96" x1="653.305" y1="261.578" x2="336.956" y2="799.369"/>
	<line clip-path="url(#SVGID_2_)" fill="none" stroke="#76FE96" x1="635.731" y1="261.578" x2="319.382" y2="799.369"/>
	<line clip-path="url(#SVGID_2_)" fill="none" stroke="#76FE96" x1="618.157" y1="261.578" x2="301.806" y2="799.369"/>
	<line clip-path="url(#SVGID_2_)" fill="none" stroke="#76FE96" x1="600.579" y1="261.578" x2="284.229" y2="799.369"/>
	<line clip-path="url(#SVGID_2_)" fill="none" stroke="#76FE96" x1="583.006" y1="261.578" x2="266.656" y2="799.369"/>
	<line clip-path="url(#SVGID_2_)" fill="none" stroke="#76FE96" x1="565.428" y1="261.578" x2="249.081" y2="799.369"/>
	<line clip-path="url(#SVGID_2_)" fill="none" stroke="#76FE96" x1="547.856" y1="261.578" x2="231.505" y2="799.369"/>
	<line clip-path="url(#SVGID_2_)" fill="none" stroke="#76FE96" x1="530.28" y1="261.578" x2="213.932" y2="799.369"/>
	<line clip-path="url(#SVGID_2_)" fill="none" stroke="#76FE96" x1="512.704" y1="261.578" x2="196.355" y2="799.369"/>
	<line clip-path="url(#SVGID_2_)" fill="none" stroke="#76FE96" x1="495.132" y1="261.578" x2="178.78" y2="799.369"/>
	<line clip-path="url(#SVGID_2_)" fill="none" stroke="#76FE96" x1="477.556" y1="261.578" x2="161.207" y2="799.369"/>
	<line clip-path="url(#SVGID_2_)" fill="none" stroke="#76FE96" x1="459.979" y1="261.578" x2="143.631" y2="799.369"/>
	<line clip-path="url(#SVGID_2_)" fill="none" stroke="#76FE96" x1="442.405" y1="261.578" x2="126.056" y2="799.369"/>
	<line clip-path="url(#SVGID_2_)" fill="none" stroke="#76FE96" x1="424.831" y1="261.578" x2="108.481" y2="799.369"/>
	<line clip-path="url(#SVGID_2_)" fill="none" stroke="#76FE96" x1="407.255" y1="261.578" x2="90.906" y2="799.369"/>
	<line clip-path="url(#SVGID_2_)" fill="none" stroke="#76FE96" x1="389.681" y1="261.578" x2="73.331" y2="799.369"/>
	<line clip-path="url(#SVGID_2_)" fill="none" stroke="#76FE96" x1="372.106" y1="261.578" x2="55.757" y2="799.369"/>
	<line clip-path="url(#SVGID_2_)" fill="none" stroke="#76FE96" x1="354.53" y1="261.578" x2="38.182" y2="799.369"/>
	<line clip-path="url(#SVGID_2_)" fill="none" stroke="#76FE96" x1="336.954" y1="261.578" x2="20.605" y2="799.369"/>
	<line clip-path="url(#SVGID_2_)" fill="none" stroke="#76FE96" x1="319.382" y1="261.578" x2="3.032" y2="799.369"/>
	<use xlink:href="#SVGID_1_"  overflow="visible" fill="none" stroke="#76FE96" stroke-miterlimit="10"/>
</g>
<g>
</g>
<g>
</g>
<g>
</g>
<g>
</g>
<g>
</g>
<g>
</g>
<g>
</g>
<g>
</g>
<g>
</g>
<g>
</g>
<g>
</g>
<g>
</g>
<g>
</g>
<g>
</g>
<g>
</g>
</svg>
