<?xml version="1.0" encoding="utf-8"?>
<!-- Generator: Adobe Illustrator 16.0.3, SVG Export Plug-In . SVG Version: 6.00 Build 0)  -->
<!DOCTYPE svg PUBLIC "-//W3C//DTD SVG 1.1//EN" "http://www.w3.org/Graphics/SVG/1.1/DTD/svg11.dtd">
<svg version="1.1" id="Ebene_1" xmlns="http://www.w3.org/2000/svg" xmlns:xlink="http://www.w3.org/1999/xlink" x="0px" y="0px"
	 width="186.284px" height="200px" viewBox="0 0 186.284 200" enable-background="new 0 0 186.284 200" xml:space="preserve">
<g>
	<defs>
		<rect id="SVGID_1_" width="186.284" height="200"/>
	</defs>
	<clipPath id="SVGID_2_">
		<use xlink:href="#SVGID_1_"  overflow="visible"/>
	</clipPath>
	<line clip-path="url(#SVGID_2_)" fill="none" stroke="#76FE96" x1="185.175" y1="100.373" x2="85.759" y2="199.467"/>
	<line clip-path="url(#SVGID_2_)" fill="none" stroke="#76FE96" x1="179.519" y1="94.61" x2="75.093" y2="199.468"/>
	<line clip-path="url(#SVGID_2_)" fill="none" stroke="#76FE96" x1="174.455" y1="89.546" x2="64.424" y2="199.468"/>
	<line clip-path="url(#SVGID_2_)" fill="none" stroke="#76FE96" x1="169.281" y1="84.373" x2="53.757" y2="199.467"/>
	<line clip-path="url(#SVGID_2_)" fill="none" stroke="#76FE96" x1="164.055" y1="78.825" x2="43.093" y2="199.467"/>
	<line clip-path="url(#SVGID_2_)" fill="none" stroke="#76FE96" x1="158.293" y1="73.278" x2="32.427" y2="199.468"/>
	<line clip-path="url(#SVGID_2_)" fill="none" stroke="#76FE96" x1="153.173" y1="67.73" x2="21.76" y2="199.468"/>
	<line clip-path="url(#SVGID_2_)" fill="none" stroke="#76FE96" x1="147.627" y1="62.933" x2="11.091" y2="199.468"/>
	<line clip-path="url(#SVGID_2_)" fill="none" stroke="#76FE96" x1="10.772" y1="0.532" x2="147.834" y2="137.594"/>
	<line clip-path="url(#SVGID_2_)" fill="none" stroke="#76FE96" x1="21.44" y1="0.532" x2="152.855" y2="131.948"/>
	<line clip-path="url(#SVGID_2_)" fill="none" stroke="#76FE96" x1="32.106" y1="0.532" x2="158.517" y2="126.944"/>
	<line clip-path="url(#SVGID_2_)" fill="none" stroke="#76FE96" x1="42.774" y1="0.532" x2="163.735" y2="121.495"/>
	<line clip-path="url(#SVGID_2_)" fill="none" stroke="#76FE96" x1="53.441" y1="0.532" x2="168.96" y2="116.053"/>
	<line clip-path="url(#SVGID_2_)" fill="none" stroke="#76FE96" x1="64.107" y1="0.532" x2="174.615" y2="111.041"/>
	<line clip-path="url(#SVGID_2_)" fill="none" stroke="#76FE96" x1="74.774" y1="0.532" x2="179.628" y2="105.387"/>
	<line clip-path="url(#SVGID_2_)" fill="none" stroke="#76FE96" x1="85.441" y1="0.532" x2="185.545" y2="100.637"/>
	<polygon clip-path="url(#SVGID_2_)" fill="#76FE96" stroke="#76FE96" points="99.838,100 0.753,1.808 0.753,198.194 	"/>
</g>
<g>
</g>
<g>
</g>
<g>
</g>
<g>
</g>
<g>
</g>
<g>
</g>
<g>
</g>
<g>
</g>
<g>
</g>
<g>
</g>
<g>
</g>
<g>
</g>
<g>
</g>
<g>
</g>
<g>
</g>
</svg>
