<?xml version="1.0" encoding="utf-8"?>
<!-- Generator: Adobe Illustrator 16.0.3, SVG Export Plug-In . SVG Version: 6.00 Build 0)  -->
<!DOCTYPE svg PUBLIC "-//W3C//DTD SVG 1.1//EN" "http://www.w3.org/Graphics/SVG/1.1/DTD/svg11.dtd">
<svg version="1.1" id="Ebene_1" xmlns="http://www.w3.org/2000/svg" xmlns:xlink="http://www.w3.org/1999/xlink" x="0px" y="0px"
	 width="186.284px" height="200px" viewBox="0 0 186.284 200" enable-background="new 0 0 186.284 200" xml:space="preserve">
<g>
	<defs>
		<rect id="SVGID_1_" width="186.284" height="200"/>
	</defs>
	<clipPath id="SVGID_2_">
		<use xlink:href="#SVGID_1_"  overflow="visible"/>
	</clipPath>
	<line clip-path="url(#SVGID_2_)" fill="none" stroke="#76FE96" x1="1.108" y1="99.627" x2="100.525" y2="0.534"/>
	<line clip-path="url(#SVGID_2_)" fill="none" stroke="#76FE96" x1="6.765" y1="105.39" x2="111.19" y2="0.532"/>
	<line clip-path="url(#SVGID_2_)" fill="none" stroke="#76FE96" x1="11.83" y1="110.455" x2="121.859" y2="0.532"/>
	<line clip-path="url(#SVGID_2_)" fill="none" stroke="#76FE96" x1="17.003" y1="115.627" x2="132.526" y2="0.534"/>
	<line clip-path="url(#SVGID_2_)" fill="none" stroke="#76FE96" x1="22.229" y1="121.175" x2="143.191" y2="0.534"/>
	<line clip-path="url(#SVGID_2_)" fill="none" stroke="#76FE96" x1="27.99" y1="126.722" x2="153.857" y2="0.532"/>
	<line clip-path="url(#SVGID_2_)" fill="none" stroke="#76FE96" x1="33.11" y1="132.27" x2="164.524" y2="0.532"/>
	<line clip-path="url(#SVGID_2_)" fill="none" stroke="#76FE96" x1="38.657" y1="137.068" x2="175.193" y2="0.532"/>
	<line clip-path="url(#SVGID_2_)" fill="none" stroke="#76FE96" x1="175.511" y1="199.468" x2="38.45" y2="62.407"/>
	<line clip-path="url(#SVGID_2_)" fill="none" stroke="#76FE96" x1="164.843" y1="199.468" x2="33.429" y2="68.053"/>
	<line clip-path="url(#SVGID_2_)" fill="none" stroke="#76FE96" x1="154.177" y1="199.468" x2="27.766" y2="73.056"/>
	<line clip-path="url(#SVGID_2_)" fill="none" stroke="#76FE96" x1="143.51" y1="199.468" x2="22.549" y2="78.506"/>
	<line clip-path="url(#SVGID_2_)" fill="none" stroke="#76FE96" x1="132.843" y1="199.468" x2="17.323" y2="83.948"/>
	<line clip-path="url(#SVGID_2_)" fill="none" stroke="#76FE96" x1="122.177" y1="199.468" x2="11.669" y2="88.96"/>
	<line clip-path="url(#SVGID_2_)" fill="none" stroke="#76FE96" x1="111.51" y1="199.468" x2="6.656" y2="94.613"/>
	<line clip-path="url(#SVGID_2_)" fill="none" stroke="#76FE96" x1="100.842" y1="199.468" x2="0.738" y2="99.363"/>
	<polygon clip-path="url(#SVGID_2_)" fill="#76FE96" stroke="#76FE96" points="86.446,100 185.531,198.193 185.531,1.807 	"/>
</g>
<g>
</g>
<g>
</g>
<g>
</g>
<g>
</g>
<g>
</g>
<g>
</g>
<g>
</g>
<g>
</g>
<g>
</g>
<g>
</g>
<g>
</g>
<g>
</g>
<g>
</g>
<g>
</g>
<g>
</g>
</svg>
