<?xml version="1.0" encoding="utf-8"?>
<!-- Generator: Adobe Illustrator 16.0.3, SVG Export Plug-In . SVG Version: 6.00 Build 0)  -->
<!DOCTYPE svg PUBLIC "-//W3C//DTD SVG 1.1//EN" "http://www.w3.org/Graphics/SVG/1.1/DTD/svg11.dtd">
<svg version="1.1" id="Ebene_1" xmlns="http://www.w3.org/2000/svg" xmlns:xlink="http://www.w3.org/1999/xlink" x="0px" y="0px"
	 width="236.975px" height="800px" viewBox="0 0 236.975 800" enable-background="new 0 0 236.975 800" xml:space="preserve">
<g>
	<defs>
		<rect id="SVGID_1_" x="-716" width="953.149" height="800"/>
	</defs>
	<clipPath id="SVGID_2_">
		<use xlink:href="#SVGID_1_"  overflow="visible"/>
	</clipPath>
	<line clip-path="url(#SVGID_2_)" fill="none" stroke="#76FE96" x1="236.079" y1="0.629" x2="-80.27" y2="538.425"/>
	<line clip-path="url(#SVGID_2_)" fill="none" stroke="#76FE96" x1="218.506" y1="0.629" x2="-97.844" y2="538.425"/>
	<line clip-path="url(#SVGID_2_)" fill="none" stroke="#76FE96" x1="200.933" y1="0.629" x2="-115.419" y2="538.425"/>
	<line clip-path="url(#SVGID_2_)" fill="none" stroke="#76FE96" x1="183.354" y1="0.629" x2="-132.994" y2="538.425"/>
	<line clip-path="url(#SVGID_2_)" fill="none" stroke="#76FE96" x1="165.781" y1="0.629" x2="-150.568" y2="538.425"/>
	<line clip-path="url(#SVGID_2_)" fill="none" stroke="#76FE96" x1="148.207" y1="0.629" x2="-168.144" y2="538.425"/>
	<line clip-path="url(#SVGID_2_)" fill="none" stroke="#76FE96" x1="130.629" y1="0.629" x2="-185.72" y2="538.425"/>
	<line clip-path="url(#SVGID_2_)" fill="none" stroke="#76FE96" x1="113.057" y1="0.629" x2="-203.295" y2="538.425"/>
	<line clip-path="url(#SVGID_2_)" fill="none" stroke="#76FE96" x1="95.48" y1="0.629" x2="-220.868" y2="538.425"/>
	<line clip-path="url(#SVGID_2_)" fill="none" stroke="#76FE96" x1="77.904" y1="0.629" x2="-238.444" y2="538.425"/>
	<line clip-path="url(#SVGID_2_)" fill="none" stroke="#76FE96" x1="60.332" y1="0.629" x2="-256.02" y2="538.425"/>
	<line clip-path="url(#SVGID_2_)" fill="none" stroke="#76FE96" x1="42.756" y1="0.629" x2="-273.593" y2="538.425"/>
	<line clip-path="url(#SVGID_2_)" fill="none" stroke="#76FE96" x1="25.18" y1="0.629" x2="-291.169" y2="538.425"/>
	<line clip-path="url(#SVGID_2_)" fill="none" stroke="#76FE96" x1="7.605" y1="0.629" x2="-308.744" y2="538.425"/>
	<line clip-path="url(#SVGID_2_)" fill="none" stroke="#76FE96" x1="-9.969" y1="0.629" x2="-326.316" y2="538.425"/>
	<line clip-path="url(#SVGID_2_)" fill="none" stroke="#76FE96" x1="-27.545" y1="0.629" x2="-343.896" y2="538.425"/>
	<line clip-path="url(#SVGID_2_)" fill="none" stroke="#76FE96" x1="-45.119" y1="0.629" x2="-361.468" y2="538.425"/>
	<line clip-path="url(#SVGID_2_)" fill="none" stroke="#76FE96" x1="-62.693" y1="0.629" x2="-379.041" y2="538.425"/>
	<line clip-path="url(#SVGID_2_)" fill="none" stroke="#76FE96" x1="-80.27" y1="0.629" x2="-396.62" y2="538.425"/>
	<line clip-path="url(#SVGID_2_)" fill="none" stroke="#76FE96" x1="-97.844" y1="0.629" x2="-414.192" y2="538.425"/>
	<line clip-path="url(#SVGID_2_)" fill="none" stroke="#76FE96" x1="-115.419" y1="0.629" x2="-431.771" y2="538.425"/>
	<line clip-path="url(#SVGID_2_)" fill="none" stroke="#76FE96" x1="-132.994" y1="0.629" x2="-449.345" y2="538.425"/>
	<line clip-path="url(#SVGID_2_)" fill="none" stroke="#76FE96" x1="-150.57" y1="0.629" x2="-466.917" y2="538.425"/>
	<line clip-path="url(#SVGID_2_)" fill="none" stroke="#76FE96" x1="-168.144" y1="0.629" x2="-484.496" y2="538.425"/>
	<line clip-path="url(#SVGID_2_)" fill="none" stroke="#76FE96" x1="-185.72" y1="0.629" x2="-502.069" y2="538.425"/>
	<line clip-path="url(#SVGID_2_)" fill="none" stroke="#76FE96" x1="-203.295" y1="0.629" x2="-519.644" y2="538.425"/>
	<line clip-path="url(#SVGID_2_)" fill="none" stroke="#76FE96" x1="-220.868" y1="0.629" x2="-537.222" y2="538.425"/>
	<line clip-path="url(#SVGID_2_)" fill="none" stroke="#76FE96" x1="-238.444" y1="0.629" x2="-554.795" y2="538.425"/>
	<line clip-path="url(#SVGID_2_)" fill="none" stroke="#76FE96" x1="-256.02" y1="0.629" x2="-572.368" y2="538.425"/>
	<line clip-path="url(#SVGID_2_)" fill="none" stroke="#76FE96" x1="-273.593" y1="0.629" x2="-589.945" y2="538.425"/>
	<line clip-path="url(#SVGID_2_)" fill="none" stroke="#76FE96" x1="-291.169" y1="0.629" x2="-607.519" y2="538.425"/>
	<line clip-path="url(#SVGID_2_)" fill="none" stroke="#76FE96" x1="-308.744" y1="0.629" x2="-625.092" y2="538.425"/>
	<line clip-path="url(#SVGID_2_)" fill="none" stroke="#76FE96" x1="-326.316" y1="0.629" x2="-642.671" y2="538.425"/>
	<line clip-path="url(#SVGID_2_)" fill="none" stroke="#76FE96" x1="-343.896" y1="0.629" x2="-660.244" y2="538.425"/>
	<line clip-path="url(#SVGID_2_)" fill="none" stroke="#76FE96" x1="-361.468" y1="0.629" x2="-677.817" y2="538.425"/>
	<line clip-path="url(#SVGID_2_)" fill="none" stroke="#76FE96" x1="-379.047" y1="0.629" x2="-695.395" y2="538.425"/>
	<line clip-path="url(#SVGID_2_)" fill="none" stroke="#76FE96" x1="-396.62" y1="0.629" x2="-712.969" y2="538.425"/>
	<line clip-path="url(#SVGID_2_)" fill="none" stroke="#76FE96" x1="-714.93" y1="261.578" x2="-398.582" y2="799.369"/>
	<line clip-path="url(#SVGID_2_)" fill="none" stroke="#76FE96" x1="-697.355" y1="261.578" x2="-381.008" y2="799.369"/>
	<line clip-path="url(#SVGID_2_)" fill="none" stroke="#76FE96" x1="-679.778" y1="261.578" x2="-363.43" y2="799.369"/>
	<line clip-path="url(#SVGID_2_)" fill="none" stroke="#76FE96" x1="-662.205" y1="261.578" x2="-345.856" y2="799.369"/>
	<line clip-path="url(#SVGID_2_)" fill="none" stroke="#76FE96" x1="-644.632" y1="261.578" x2="-328.283" y2="799.369"/>
	<line clip-path="url(#SVGID_2_)" fill="none" stroke="#76FE96" x1="-627.053" y1="261.578" x2="-310.707" y2="799.369"/>
	<line clip-path="url(#SVGID_2_)" fill="none" stroke="#76FE96" x1="-609.479" y1="261.578" x2="-293.131" y2="799.369"/>
	<line clip-path="url(#SVGID_2_)" fill="none" stroke="#76FE96" x1="-591.906" y1="261.578" x2="-275.555" y2="799.369"/>
	<line clip-path="url(#SVGID_2_)" fill="none" stroke="#76FE96" x1="-574.329" y1="261.578" x2="-257.982" y2="799.369"/>
	<line clip-path="url(#SVGID_2_)" fill="none" stroke="#76FE96" x1="-556.756" y1="261.578" x2="-240.406" y2="799.369"/>
	<line clip-path="url(#SVGID_2_)" fill="none" stroke="#76FE96" x1="-539.183" y1="261.578" x2="-222.83" y2="799.369"/>
	<line clip-path="url(#SVGID_2_)" fill="none" stroke="#76FE96" x1="-521.604" y1="261.578" x2="-205.256" y2="799.369"/>
	<line clip-path="url(#SVGID_2_)" fill="none" stroke="#76FE96" x1="-504.031" y1="261.578" x2="-187.682" y2="799.369"/>
	<line clip-path="url(#SVGID_2_)" fill="none" stroke="#76FE96" x1="-486.458" y1="261.578" x2="-170.105" y2="799.369"/>
	<line clip-path="url(#SVGID_2_)" fill="none" stroke="#76FE96" x1="-468.88" y1="261.578" x2="-152.531" y2="799.369"/>
	<line clip-path="url(#SVGID_2_)" fill="none" stroke="#76FE96" x1="-451.307" y1="261.578" x2="-134.957" y2="799.369"/>
	<line clip-path="url(#SVGID_2_)" fill="none" stroke="#76FE96" x1="-433.732" y1="261.578" x2="-117.381" y2="799.369"/>
	<line clip-path="url(#SVGID_2_)" fill="none" stroke="#76FE96" x1="-416.155" y1="261.578" x2="-99.807" y2="799.369"/>
	<line clip-path="url(#SVGID_2_)" fill="none" stroke="#76FE96" x1="-398.582" y1="261.578" x2="-82.232" y2="799.369"/>
	<line clip-path="url(#SVGID_2_)" fill="none" stroke="#76FE96" x1="-381.008" y1="261.578" x2="-64.656" y2="799.369"/>
	<line clip-path="url(#SVGID_2_)" fill="none" stroke="#76FE96" x1="-363.43" y1="261.578" x2="-47.08" y2="799.369"/>
	<line clip-path="url(#SVGID_2_)" fill="none" stroke="#76FE96" x1="-345.856" y1="261.578" x2="-29.507" y2="799.369"/>
	<line clip-path="url(#SVGID_2_)" fill="none" stroke="#76FE96" x1="-328.278" y1="261.578" x2="-11.932" y2="799.369"/>
	<line clip-path="url(#SVGID_2_)" fill="none" stroke="#76FE96" x1="-310.707" y1="261.578" x2="5.645" y2="799.369"/>
	<line clip-path="url(#SVGID_2_)" fill="none" stroke="#76FE96" x1="-293.131" y1="261.578" x2="23.218" y2="799.369"/>
	<line clip-path="url(#SVGID_2_)" fill="none" stroke="#76FE96" x1="-275.555" y1="261.578" x2="40.794" y2="799.369"/>
	<line clip-path="url(#SVGID_2_)" fill="none" stroke="#76FE96" x1="-257.982" y1="261.578" x2="58.369" y2="799.369"/>
	<line clip-path="url(#SVGID_2_)" fill="none" stroke="#76FE96" x1="-240.406" y1="261.578" x2="75.942" y2="799.369"/>
	<line clip-path="url(#SVGID_2_)" fill="none" stroke="#76FE96" x1="-222.83" y1="261.578" x2="93.519" y2="799.369"/>
	<line clip-path="url(#SVGID_2_)" fill="none" stroke="#76FE96" x1="-205.256" y1="261.578" x2="111.094" y2="799.369"/>
	<line clip-path="url(#SVGID_2_)" fill="none" stroke="#76FE96" x1="-187.682" y1="261.578" x2="128.668" y2="799.369"/>
	<line clip-path="url(#SVGID_2_)" fill="none" stroke="#76FE96" x1="-170.105" y1="261.578" x2="146.243" y2="799.369"/>
	<line clip-path="url(#SVGID_2_)" fill="none" stroke="#76FE96" x1="-152.531" y1="261.578" x2="163.818" y2="799.369"/>
	<line clip-path="url(#SVGID_2_)" fill="none" stroke="#76FE96" x1="-134.957" y1="261.578" x2="181.393" y2="799.369"/>
	<line clip-path="url(#SVGID_2_)" fill="none" stroke="#76FE96" x1="-117.381" y1="261.578" x2="198.968" y2="799.369"/>
	<line clip-path="url(#SVGID_2_)" fill="none" stroke="#76FE96" x1="-99.805" y1="261.578" x2="216.544" y2="799.369"/>
	<line clip-path="url(#SVGID_2_)" fill="none" stroke="#76FE96" x1="-82.232" y1="261.578" x2="234.117" y2="799.369"/>
	<use xlink:href="#SVGID_1_"  overflow="visible" fill="none" stroke="#76FE96" stroke-miterlimit="10"/>
</g>
<g>
</g>
<g>
</g>
<g>
</g>
<g>
</g>
<g>
</g>
<g>
</g>
<g>
</g>
<g>
</g>
<g>
</g>
<g>
</g>
<g>
</g>
<g>
</g>
<g>
</g>
<g>
</g>
<g>
</g>
</svg>
